<svg id="Capa_1" enable-background="new 0 0 512 512" height="512" viewBox="0 0 512 512" width="512" xmlns="http://www.w3.org/2000/svg"><g><path d="m169.303 418.413c-4.143 0-7.5 3.357-7.5 7.5v78.587c0 4.143 3.357 7.5 7.5 7.5s7.5-3.357 7.5-7.5v-78.587c0-4.142-3.358-7.5-7.5-7.5z"/><path d="m490.959 0h-402.126c-4.143 0-7.5 3.357-7.5 7.5s3.357 7.5 7.5 7.5h402.126c3.331 0 6.041 2.71 6.041 6.041v9.875c0 3.331-2.71 6.041-6.041 6.041h-469.917c-3.332 0-6.042-2.71-6.042-6.041v-9.875c0-3.331 2.71-6.041 6.042-6.041h37.805c4.143 0 7.5-3.357 7.5-7.5s-3.358-7.5-7.5-7.5h-37.805c-11.603 0-21.042 9.438-21.042 21.041v9.875c0 11.603 9.439 21.041 21.042 21.041h23.342v109.634h-3.342c-11.603 0-21.042 9.439-21.042 21.041v9.875c0 11.602 9.439 21.041 21.042 21.041h49.783v89.633h-19.783c-11.603 0-21.042 9.439-21.042 21.042v9.874c0 11.603 9.439 21.042 21.042 21.042h24.991v149.361c0 4.143 3.357 7.5 7.5 7.5s7.5-3.357 7.5-7.5v-39.172h16.619c4.143 0 7.5-3.357 7.5-7.5s-3.357-7.5-7.5-7.5h-16.619v-21.73h6.619c4.143 0 7.5-3.357 7.5-7.5s-3.357-7.5-7.5-7.5h-6.619v-21.729h16.619c4.143 0 7.5-3.357 7.5-7.5s-3.357-7.5-7.5-7.5h-16.619v-21.729h50.77v40.787c0 4.143 3.357 7.5 7.5 7.5s7.5-3.357 7.5-7.5v-40.787h38.813v149.36c0 4.143 3.357 7.5 7.5 7.5s7.5-3.357 7.5-7.5v-39.172h16.62c4.143 0 7.5-3.357 7.5-7.5s-3.357-7.5-7.5-7.5h-16.62v-21.73h6.62c4.143 0 7.5-3.357 7.5-7.5s-3.357-7.5-7.5-7.5h-6.62v-21.729h16.62c4.143 0 7.5-3.357 7.5-7.5s-3.357-7.5-7.5-7.5h-16.62v-21.729h50.77v149.36c0 4.143 3.357 7.5 7.5 7.5s7.5-3.357 7.5-7.5v-149.361h38.813v149.361c0 4.143 3.357 7.5 7.5 7.5s7.5-3.357 7.5-7.5v-39.172h16.619c4.143 0 7.5-3.357 7.5-7.5s-3.357-7.5-7.5-7.5h-16.619v-21.73h6.619c4.143 0 7.5-3.357 7.5-7.5s-3.357-7.5-7.5-7.5h-6.619v-21.729h16.619c4.143 0 7.5-3.357 7.5-7.5s-3.357-7.5-7.5-7.5h-16.619v-21.729h50.77v149.36c0 4.143 3.357 7.5 7.5 7.5s7.5-3.357 7.5-7.5v-149.361h24.991c11.603 0 21.041-9.439 21.041-21.042v-9.874c0-11.603-9.438-21.042-21.041-21.042h-19.783v-26.122c0-4.143-3.357-7.5-7.5-7.5s-7.5 3.357-7.5 7.5v26.122h-21.699v-89.633h21.699v33.523c0 4.143 3.357 7.5 7.5 7.5s7.5-3.357 7.5-7.5v-33.523h49.783c11.603 0 21.041-9.439 21.041-21.041v-9.875c0-11.602-9.438-21.041-21.041-21.041h-3.342v-109.634h23.342c11.602 0 21.041-9.438 21.041-21.041v-9.875c-.001-11.603-9.44-21.041-21.042-21.041zm-116.226 161.591v-32.552h41.186v32.552zm41.186-47.552h-41.186v-14.531h41.186zm0-29.531h-41.186v-32.551h41.186zm-56.186-32.551v109.634h-21.698v-109.634zm-77.883 109.634v-32.552h41.186v32.552zm0-62.083h41.186v14.531h-41.186zm41.185-15h-41.185v-32.551h41.186v32.551zm-56.185-32.551v109.634h-21.698v-109.634zm-77.884 109.634v-32.552h41.186v32.552zm0-62.083h41.186v14.531h-41.186zm41.185-15h-41.186v-32.551h41.186zm-56.185-32.551v109.634h-21.698v-109.634zm-77.884 109.634v-32.552h41.186v32.552zm0-62.083h41.186v14.531h-41.186zm41.186-15h-41.186v-32.551h41.186zm-77.884-32.551h21.698v109.634h-21.698zm46.441 161.591h21.698v89.633h-21.698zm77.884 0v22.551h-41.186v-22.551zm92.884 0v22.551h-41.185v-22.551zm92.884 52.082h-41.185v-14.531h41.185zm-56.185 37.551h-21.699v-89.633h21.699zm-77.884 0v-22.551h41.185v22.551zm41.185-37.551h-41.185v-14.531h41.185zm-56.185-22.051c0 .006-.001.013-.001.019s.001.013.001.019v29.493c0 .006-.001.013-.001.019s.001.013.001.019v30.031h-21.699v-89.633h21.699zm-77.885 59.602v-22.551h41.186v22.551zm41.186-37.551h-41.186v-14.531h41.186zm257.25 52.551c3.331 0 6.041 2.71 6.041 6.042v9.874c0 3.332-2.71 6.042-6.041 6.042h-369.917c-3.332 0-6.042-2.71-6.042-6.042v-9.874c0-3.332 2.71-6.042 6.042-6.042zm-112.667-15v-22.551h41.185v22.551zm41.185-67.082h-41.185v-22.551h41.185zm107.523-53.467v9.875c0 3.331-2.71 6.041-6.041 6.041h-429.917c-3.331 0-6.042-2.71-6.042-6.041v-9.875c0-3.331 2.711-6.041 6.042-6.041h429.917c3.331 0 6.041 2.71 6.041 6.041zm-24.383-21.041h-21.698v-109.634h21.698z"/></g></svg>