<svg height="512pt" viewBox="0 -11 512.001 512" width="512pt" xmlns="http://www.w3.org/2000/svg"><path d="m504.769531 446.070312v-1.75c0-9.367187-4.035156-18.285156-11.074219-24.464843-7.363281-6.46875-12.402343-15.339844-14.191406-24.980469l-2.347656-12.671875c5.652344-2.433594 9.621094-8.058594 9.621094-14.59375v-6.226563c0-6.328124-3.730469-11.789062-9.097656-14.339843l-5.351563-41.070313c-.535156-4.109375-4.300781-7.007812-8.40625-6.46875-4.105469.535156-7.003906 4.296875-6.46875 8.40625l4.898437 37.589844h-92.910156l9.078125-69.648438c7.53125-1.835937 13.503907-6.527343 17.136719-12.820312l11.148438-19.3125c1.839843-3.183594 3.148437-6.570312 3.980468-10.046875h36.988282l5.148437 39.539063c.492187 3.777343 3.71875 6.53125 7.429687 6.53125 4.546876 0 8.03125-3.992188 7.445313-8.46875l-4.894531-37.601563h7.628906c8.746094 0 15.859375-7.113281 15.859375-15.855469v-6.277344c0-8.441406-6.734375-15.859374-16.066406-15.859374 9.46875-12.070313 14.820312-27.109376 14.820312-42.753907 0-38.183593-31.066406-69.25-69.25-69.25-15.457031 0-30.375 5.21875-42.433593 14.570313-6.128907-14.871094-16.574219-27.839844-30.429688-37.140625l10.011719-15.035157c5.238281-7.863281 2.195312-18.488281-6.332031-22.503906-16.453126-7.75-34.742188-11.621094-52.796876-11.171875-2.359374.03125-4.75.121094-7.148437.257813l-1.453125-4.921875c-2.175781-7.378907-11.183594-10.171875-17.152344-5.289063-5.035156 4.121094-9.054687 9.175782-11.917968 14.804688-31.03125 7.691406-59.46875 24.441406-81.480469 47.847656v-3.707031c0-4.753907-3.867188-8.617188-8.617188-8.617188h-27.554687c-4.753906 0-8.617188 3.863281-8.617188 8.617188v30.078125h-10.785156v-30.078125c0-4.753907-3.863281-8.621094-8.617188-8.621094h-28.929687c-4.753906 0-8.617187 3.867187-8.617187 8.621094v30.078125h-10.785157v-30.078125c0-4.753907-3.867187-8.621094-8.617187-8.621094h-27.554688c-4.75 0-8.617187 3.867187-8.617187 8.621094v32.777343c0 4.144532 3.355469 7.5 7.5 7.5s7.5-3.355468 7.5-7.5v-26.398437h14.789062v27.523437c0 6.160157 5.015625 11.175782 11.175781 11.175782h18.433594c6.160156 0 11.175782-5.015625 11.175782-11.175782v-27.523437h16.164062v27.523437c0 6.160157 5.015625 11.175782 11.175781 11.175782h18.433594c6.164063 0 11.175781-5.015625 11.175781-11.175782v-27.523437h14.789063v15.746094c-13.550781 19.316406-22.855469 41.324219-27.328125 64.394531h-92.386719c-4.191406 0-7.597656-3.40625-7.597656-7.59375v-11.148438c0-4.140624-3.355469-7.5-7.5-7.5s-7.5 3.359376-7.5 7.5v11.148438c0 7.871094 4.050781 14.8125 10.171875 18.859375-.421875 1.414063-.65625 2.910156-.65625 4.460937v6.320313c0 5.417969 2.757812 10.207031 6.941406 13.035156-.382812 1.914063-.300781 2.382813-.300781 10.375 0 5.980469 3.457031 11.160157 8.472656 13.675781l-8.148437 140.195313c-5.160157 2.625-8.707032 7.976563-8.707032 14.148437v6.226563c0 6.535156 3.96875 12.160156 9.621094 14.59375l-2.730469 14.730469c-1.597656 8.628906-5.695312 16.5-11.847656 22.757812l-3.703125 3.773438c-5.96875 6.074218-9.273438 14.09375-9.328125 22.601562-4.324219 2.570313-7.234375 7.273438-7.234375 12.65625v16.96875c0 8.121094 6.605469 14.726563 14.730469 14.726563h482.542969c8.121093 0 14.726562-6.605469 14.726562-14.726563v-16.96875c0-5.378906-2.910156-10.082031-7.230469-12.652344zm-20.96875-14.945312c3.710938 3.261719 5.859375 7.9375 5.953125 12.871094h-129.265625c-1.359375-1.667969-3.050781-3.054688-4.96875-4.070313v-2.894531c0-3.570312-.519531-7.078125-1.5-10.4375 6.445313-7.734375 10.785157-16.953125 12.632813-26.925781l3-16.171875h92.488281l2.617187 14.117187c2.394532 12.929688 9.160157 24.832031 19.042969 33.511719zm-329.277343 44.292969c-.605469 0-1.09375-.488281-1.09375-1.089844v-20.175781c0-.601563.488281-1.09375 1.09375-1.09375h193.496093c.453125 0 .84375.277344 1.007813.667968.128906.300782.085937-.964843.085937 20.601563 0 .601563-.488281 1.089844-1.09375 1.089844zm-113.417969-106.925781c-.488281 0-.882813-.394532-.882813-.882813v-6.226563c0-.484374.394532-.882812.882813-.882812h109.996093c.488282 0 .886719.394531.886719.882812v6.226563c0 .488281-.398437.882813-.886719.882813zm125.882812-.882813v-6.226563c0-6.171874-3.550781-11.523437-8.707031-14.148437l-3.699219-63.640625h6.609375c-.902344 6.578125-1.371094 9.0625-3.097656 19.21875-1.910156 11.222656 3.039062 22.109375 11.988281 28.214844-1.058593 2.25-1.667969 4.75-1.667969 7.394531v7.402344c0 7.582031 4.867188 14.035156 11.632813 16.445312l-3.460937 18.675781c-1.800782 9.710938-6.195313 18.628907-12.746094 25.949219-1.941406-3.785156-3.351563-7.835937-4.125-12.019531l-2.351563-12.675781c5.65625-2.429688 9.625-8.054688 9.625-14.589844zm88.050781-165.746094c2.746094 1.617188-12.84375-7.414062 44.730469 25.824219l15.476563 32.769531c6.851562 14.503907 11.039062 29.960938 12.449218 45.941407.6875 7.769531-5.40625 14.558593-13.332031 14.558593h-128.289062c-8.277344 0-14.585938-7.449219-13.195313-15.628906 1.84375-10.832031 3.050782-17.332031 4.246094-28.363281 1.011719-8.636719 1.804688-21.21875 1.804688-33.160156v-64.210938c0-38.484375 18.398437-73.367188 48.160156-95.050781-26.011719 39.761719-13.441406 93.390625 27.949218 117.320312zm216.738282 159.519531v6.226563c0 .488281-.394532.882813-.882813.882813h-110c-.484375 0-.882812-.394532-.882812-.882813v-6.226563c0-.484374.394531-.878906.882812-.882812 1.300781-.003906 111 .003906 110 0 .488281.003906.882813.398438.882813.882812zm-126.765625 0v6.226563c0 6.535156 3.96875 12.160156 9.625 14.59375l-2.730469 14.730469c-1.011719 5.445312-3.019531 10.589844-5.90625 15.21875-.988281-1.105469-2.039062-2.160156-3.164062-3.144532-8.992188-7.902343-15.148438-18.734374-17.328126-30.503906l-3.011718-16.234375c6.765625-2.410156 11.632812-8.859375 11.632812-16.441406v-7.402344c0-3.097656-.820312-6.003906-2.242187-8.53125 7.667969-6.007812 11.582031-15.433593 10.75-24.816406-1.503907-17.035156-5.855469-33.53125-12.933594-49.078125.894531.753906 1.851563 1.441406 2.886719 2.035156l25.902344 14.957032c1.597656.921874 3.265624 1.671874 4.976562 2.246093l-9.355469 71.804688c-5.371093 2.550781-9.101562 8.011719-9.101562 14.339843zm-176.597657 62.355469 4.402344-4.484375c9.613282-9.785156 16.019532-22.085937 18.515625-35.570312l3.78125-20.390625h112.316407l3.328124 17.945312c2.789063 15.0625 10.667969 28.925781 22.179688 39.039063 5.023438 4.414062 7.582031 10.613281 7.582031 16.75v1.03125h-178.460937c.3125-5.390625 2.539062-10.4375 6.355468-14.320313zm148.246094-87.78125c1.359375 0 2.46875 1.109375 2.46875 2.46875v7.402344c0 1.359375-1.109375 2.464844-2.46875 2.464844h-130.777344c-1.359374 0-2.464843-1.105469-2.464843-2.464844v-7.402344c0-1.359375 1.105469-2.46875 2.464843-2.46875zm154.730469-124.417969v6.277344c0 .472656-.382813.855469-.859375.855469-.449219 0-19.183594 0-59.160156 0-.4375-2.726563-1.167969-5.410156-2.1875-7.992187h61.347656c.476562 0 .859375.386718.859375.859374zm-55.496094-112.863281c29.914063 0 54.25 24.335938 54.25 54.25 0 16.691407-7.785156 32.496094-20.910156 42.753907h-49.992187l-5.652344-6.898438c-11.316406-13.816406-16.605469-31.582031-14.519532-48.746094 1.082032-8.875.730469-17.648437-.898437-26.058594 10.082031-9.757812 23.621094-15.300781 37.722656-15.300781zm-121.691406-71.285156c15.820313-.378906 31.765625 2.980469 46.117187 9.742187.054688.027344.226563.109376.285157.324219.046875.160157-.011719.242188-.046875.296875l-10.71875 16.101563c-10.371094-4.523438-21.566406-6.859375-32.945313-6.859375l-5.761719-19.53125c1.023438-.035156 2.046876-.0625 3.070313-.074219zm-10.050781 29.425781c1 3.386719 4.238281 5.625 7.738281 5.359375 42.128906-3.066406 77.535156 32.949219 72.289063 76.046875-2.578126 21.203125 3.910156 43.097656 17.804687 60.0625l9.703125 11.84375c6.03125 7.363282 6.886719 17.847656 2.125 26.089844l-11.148438 19.3125c-3.371093 5.84375-10.828124 7.839844-16.671874 4.46875l-25.902344-14.953125c-1.734375-1-2.734375-3.101563-2.683594-5.625.09375-4.464844-2.25-8.621094-6.113281-10.851563l-68.664063-39.644531c-15.222656-8.625-27.105468-23.488281-31.878906-41.832031-7.835938-30.128906 5.667969-60.875 31.710938-75.882812 2.324218-1.335938 3.757812-3.8125 3.757812-6.496094v-26.515625c0-7.125 2.398438-13.910157 6.730469-19.371094zm-32.746094-22.652344c-.25 2.894532-.191406 2.179688-.191406 20.738282-51.152344 18.574218-87.285156 67.5625-87.285156 124.691406v64.210938c0 8.253906-.355469 16.535156-1.058594 24.789062h-18.492188v-18.964844c0-4.140625-3.359375-7.5-7.5-7.5-4.144531 0-7.5 3.359375-7.5 7.5v24.070313c0 5.457031 4.4375 9.894531 9.894532 9.894531h.28125l3.597656 61.90625h-94.097656l7.953124-136.828125h72.371094v5.960937c0 4.140626 3.355469 7.5 7.5 7.5 4.144532 0 7.5-3.359374 7.5-7.5 0-48.574218.015625-33.148437.015625-36.453124.625-66.035157 44.769531-124.644532 107.011719-144.015626zm-202.492188 159.507813c-.167968 0-.308593-.136719-.308593-.308594v-7.375c0-.171875.140625-.3125.308593-.3125h80.464844v7.996094zm81.316407-30.765625c-.261719 2.582031-.460938 5.175781-.601563 7.773438h-86.933594c-.402343 0-.730468-.328126-.730468-.726563v-6.320313c0-.398437.328125-.726562.730468-.726562zm-99.261719 267.300781c8.25-8.402343 13.746094-18.960937 15.894531-30.539062l2.996094-16.171875h92.492187l2.617188 14.117187c1.382812 7.464844 4.25 14.621094 8.34375 21.015625-4.085938 6.089844-6.289062 13.25-6.289062 20.738282v.558593c-1.917969 1.015625-3.609376 2.402344-4.96875 4.070313h-119.660157c.492188-3.765625 2.164063-7.265625 4.867188-10.019532zm-15.96875 28.789063h123.429688c0 17.257812-.023438 15.257812.054687 16.421875h-123.484375zm482 16.421875h-132.941406c.078125-1.164063.054687.804687.054687-16.421875h132.886719zm0 0"/></svg>