<svg xmlns="http://www.w3.org/2000/svg" viewBox="0 0 50 50"><defs><style>.cls-1{fill:#fff;}.cls-2{fill:#c35b26;}</style></defs><title>logo_mini2</title><g id="Layer_2" data-name="Layer 2"><g id="Layer_001_Image" data-name="Layer 001 Image"><g id="lag"><ellipse class="cls-1" cx="23.5" cy="25" rx="21.5" ry="23.5"/><path class="cls-2" d="M23.12,50a21.5,21.5,0,0,1-9-2,23.14,23.14,0,0,1-7.35-5.37,25.33,25.33,0,0,1-4.94-7.94,27,27,0,0,1,0-19.44A25.33,25.33,0,0,1,6.75,7.34,23.14,23.14,0,0,1,14.1,2a21.61,21.61,0,0,1,18,0,22.92,22.92,0,0,1,7.35,5.37,25.36,25.36,0,0,1,5,7.94,27,27,0,0,1,0,19.44,25.36,25.36,0,0,1-5,7.94A22.92,22.92,0,0,1,32.13,48,21.45,21.45,0,0,1,23.12,50Zm0-46.6c-11,0-19.89,9.69-19.89,21.6s8.92,21.6,19.89,21.6S43,36.91,43,25,34.09,3.4,23.12,3.4Z"/><rect class="cls-2" x="12" y="3.5" width="3" height="30"/><rect class="cls-2" x="12" y="32.5" width="31" height="3"/><path class="cls-2" d="M36.52,44.25a1.62,1.62,0,0,1-1.49-1l-7.89-19.7L19.64,43.1a1.59,1.59,0,0,1-2.1.94,1.74,1.74,0,0,1-.89-2.21l9-23.41a1.58,1.58,0,0,1,3,0L38,41.89a1.74,1.74,0,0,1-.86,2.23A1.5,1.5,0,0,1,36.52,44.25Z"/><rect class="cls-1" x="41" y="6.5" width="9" height="25.98"/><polygon class="cls-1" points="37 12.21 41.7 17.67 45.46 14.08 40.76 8.63 37 12.21"/></g></g></g></svg>